# ProBuilder 4.4.0
# https://unity3d.com/unity/features/worldbuilding/probuilder
# 26/04/2021 9:21:48 AM

mtllib ./roof.mtl
o roof

g roof
v 7.715509E-08 2 4.145394E-07
v -4.254774 1.999998 -0.8285852
v -8.347686 1.999995 -3.467016
v -11.58075 1.99999 -7.483824
v -14.09244 2 -12.61322
v -15.23841 1.999994 -18.4713
v -15.32029 2.000003 -24.57348
v -14.18623 1.999998 -30.47123
v -11.91661 2.000009 -35.75541
v -8.642775 2.000006 -39.75489
v -4.793729 1.999989 -42.4473
v -0.4850192 2.000004 -43.33294
v 3.984362 2.000006 -42.6208
v 7.937664 2.000009 -39.99441
v 11.13863 1.999999 -35.94982
v 13.54398 2.000004 -30.79598
v 14.85792 1.999995 -24.94812
v 14.91594 2 -18.74592
v 13.73145 2.000006 -12.69348
v 11.17893 1.999995 -7.26062
v 8.648738 1.999998 -3.852201
v 4.610125 2 -0.9260411
v 4.610125 -1.841185E-06 -0.9260417
v 0 0 0
v 8.648738 -5.236863E-06 -3.852201
v -4.254774 2.803936E-07 -0.8285856
v -8.347686 -1.002036E-06 -3.467016
v 11.17893 -1.062639E-06 -7.260621
v -11.58075 -3.644163E-06 -7.483824
v -14.09244 2.393044E-07 -12.61322
v -15.23841 -4.435049E-06 -18.4713
v -4.79373 -4.16E-06 -42.4473
v -0.4850201 1.731612E-06 -43.33294
v -8.642776 -1.00497E-06 -39.75489
v 3.984361 1.303688E-06 -42.6208
v 7.937665 2.608089E-06 -39.99441
v 11.13863 -2.348374E-06 -35.94982
v -11.91661 3.11951E-06 -35.75541
v -14.18623 4.664871E-07 -30.47123
v -15.32029 -1.93057E-06 -24.57348
v 13.54398 1.44262E-06 -30.79598
v 14.85792 -1.559672E-06 -24.94812
v 14.91594 -3.974357E-06 -18.74592
v 13.73145 1.39997E-06 -12.69348

vt -2.52607E-07 1.350184E-07
vt 4.254774 -0.8285855
vt 8.347686 -3.467016
vt 11.58075 -7.483825
vt 14.09244 -12.61322
vt 15.23841 -18.4713
vt 15.32029 -24.57348
vt 14.18623 -30.47123
vt 11.91661 -35.75541
vt 8.642775 -39.75489
vt 4.793729 -42.4473
vt 0.485019 -43.33294
vt -3.984362 -42.6208
vt -7.937664 -39.99441
vt -11.13863 -35.94982
vt -13.54398 -30.79598
vt -14.85792 -24.94812
vt -14.91594 -18.74592
vt -13.73145 -12.69348
vt -11.17893 -7.260621
vt -8.648738 -3.852201
vt -4.610125 -0.9260414
vt 4.702212 -1.841185E-06
vt 4.702212 2
vt -5.994238E-09 2
vt 9.263809 -4.859419E-06
vt 4.276544 -1.46374E-06
vt 9.263808 1.999998
vt 4.276544 2
vt -4.334704 2.803936E-07
vt -4.334703 1.999998
vt -4.02507 3.546642E-07
vt -8.894695 -9.277652E-07
vt -4.02507 1.999998
vt -8.894694 1.999995
vt 12.49312 -4.020613E-07
vt 8.248219 -4.576285E-06
vt 12.49312 1.999996
vt 8.248219 1.999999
vt -7.934941 -3.548768E-07
vt -13.09125 -2.997004E-06
vt -7.934941 1.999995
vt -13.09124 1.999991
vt -11.81419 -1.047902E-05
vt -17.52552 -6.595549E-06
vt -11.81419 1.999983
vt -17.52552 1.999993
vt -15.0841 1.283716E-06
vt -21.05321 -3.390638E-06
vt -15.0841 2.000001
vt -21.05321 1.999995
vt -3.850653 -6.202188E-06
vt -8.249441 -3.105759E-07
vt -3.850653 1.999987
vt -8.249442 2.000002
vt -15.70491 -2.152011E-05
vt -20.40217 -2.467514E-05
vt -15.70491 1.999985
vt -20.40217 1.999968
vt 7.297518 4.936713E-06
vt 2.771757 4.508788E-06
vt 7.297517 2.000007
vt 2.771757 2.000009
vt 20.2662 6.278243E-06
vt 15.51998 7.582644E-06
vt 20.2662 2.000011
vt 15.51998 2.000014
vt 26.43525 -8.999492E-06
vt 21.27726 -1.395595E-05
vt 26.43525 1.999998
vt 21.27726 1.999987
vt -20.11979 3.11951E-06
vt -25.28834 -1.00497E-06
vt -20.11979 2.000009
vt -25.28834 2.000006
vt -22.39938 -8.965331E-06
vt -28.15035 -6.312308E-06
vt -22.39937 1.999989
vt -28.15035 1.999999
vt -21.23849 -2.036574E-05
vt -27.24429 -1.796868E-05
vt -21.23849 1.999985
vt -27.24429 1.999979
vt -18.6741 2.711719E-06
vt -24.77683 5.216198E-06
vt -18.6741 2.000001
vt -24.77683 2.00001
vt 27.86583 -2.348374E-06
vt 22.17831 1.44262E-06
vt 27.86583 1.999999
vt 22.17831 2.000004
vt 27.07774 1.07314E-05
vt 21.08408 7.729107E-06
vt 27.07774 2.000013
vt 21.08408 2.000004
vt 24.80804 -1.559672E-06
vt 18.60557 -3.974357E-06
vt 24.80804 1.999995
vt 18.60557 2
vt 21.26171 1.190918E-06
vt 15.09445 6.565245E-06
vt 21.26171 2.000006
vt 15.09445 2.000011
vt 17.32775 4.434116E-06
vt 11.32514 1.971507E-06
vt 17.32775 2.000009
vt 11.32514 1.999998
vt 4.610125 -0.9260417
vt -4.254774 -0.8285856
vt -8.347686 -3.467016
vt -11.58075 -7.483824
vt -14.09244 -12.61322
vt -15.23841 -18.4713
vt -15.32029 -24.57348
vt -14.18623 -30.47123
vt -11.91661 -35.75541
vt -8.642776 -39.75489
vt -4.79373 -42.4473
vt -0.4850201 -43.33294
vt 3.984361 -42.6208
vt 7.937665 -39.99441
vt 11.13863 -35.94982
vt 13.54398 -30.79598
vt 14.85792 -24.94812
vt 14.91594 -18.74592
vt 13.73145 -12.69348
vt 11.17893 -7.260621
vt 8.648738 -3.852201

vn -2.196614E-07 1 -9.264116E-07
vn 0.1969374 -3.683586E-07 0.980416
vn 0.5867264 -1.930675E-07 0.8097852
vn -0.1911516 -1.960736E-07 0.9815605
vn -0.541814 -4.616317E-08 0.8404984
vn 0.8029443 -1.421106E-07 0.5960541
vn -0.7790091 -1.494918E-07 0.6270126
vn -0.8981089 9.613566E-07 0.4397732
vn -0.9813983 -9.154451E-08 0.1919827
vn -0.2013371 4.800268E-08 -0.979522
vn -0.5731875 5.466324E-07 -0.8194243
vn 0.1573523 -7.503136E-08 -0.9875425
vn 0.5533664 -1.319325E-07 -0.832938
vn 0.7841405 3.739061E-07 -0.6205834
vn -0.7738118 0 -0.6334156
vn -0.9188322 3.763666E-07 -0.3946485
vn -0.9820101 9.365154E-07 -0.1888286
vn -0.99991 -4.767946E-07 0.01341767
vn 0.9061676 0 -0.4229189
vn 0.9756751 -4.652375E-07 -0.2192216
vn 0.9999563 0 -0.009354443
vn 0.981383 -4.679588E-07 0.1920612
vn 0.9050829 -4.315762E-07 0.4252353
vn -2.300567E-07 -1 8.429371E-07

usemtl ProBuilderDefault
f 21/21/1 1/1/1 22/22/1
f 2/2/1 1/1/1 21/21/1
f 3/3/1 2/2/1 21/21/1
f 3/3/1 21/21/1 20/20/1
f 4/4/1 3/3/1 20/20/1
f 5/5/1 4/4/1 6/6/1
f 4/4/1 20/20/1 6/6/1
f 10/10/1 12/12/1 11/11/1
f 14/14/1 13/13/1 12/12/1
f 12/12/1 10/10/1 14/14/1
f 15/15/1 14/14/1 10/10/1
f 15/15/1 10/10/1 9/9/1
f 7/7/1 9/9/1 8/8/1
f 7/7/1 6/6/1 9/9/1
f 15/15/1 9/9/1 6/6/1
f 16/16/1 15/15/1 6/6/1
f 16/16/1 6/6/1 17/17/1
f 20/20/1 17/17/1 6/6/1
f 17/17/1 20/20/1 18/18/1
f 20/20/1 19/19/1 18/18/1
f 43/125/24 44/126/24 28/127/24
f 43/125/24 28/127/24 42/124/24
f 31/113/24 42/124/24 28/127/24
f 42/124/24 31/113/24 41/123/24
f 31/113/24 37/122/24 41/123/24
f 31/113/24 38/116/24 37/122/24
f 38/116/24 31/113/24 40/114/24
f 39/115/24 38/116/24 40/114/24
f 38/116/24 34/117/24 37/122/24
f 34/117/24 36/121/24 37/122/24
f 36/121/24 34/117/24 33/119/24
f 33/119/24 35/120/24 36/121/24
f 32/118/24 33/119/24 34/117/24
f 31/113/24 28/127/24 29/111/24
f 31/113/24 29/111/24 30/112/24
f 28/127/24 27/110/24 29/111/24
f 28/127/24 25/128/24 27/110/24
f 25/128/24 26/109/24 27/110/24
f 25/128/24 24/1/24 26/109/24
f 23/108/24 24/1/24 25/128/24
f 1/25/2 24/1/2 23/23/2
f 23/23/2 22/24/2 1/25/2
f 22/29/3 23/27/3 25/26/3
f 25/26/3 21/28/3 22/29/3
f 2/31/4 26/30/4 24/1/4
f 24/1/4 1/25/4 2/31/4
f 3/35/5 27/33/5 26/32/5
f 26/32/5 2/34/5 3/35/5
f 21/39/6 25/37/6 28/36/6
f 28/36/6 20/38/6 21/39/6
f 4/43/7 29/41/7 27/40/7
f 27/40/7 3/42/7 4/43/7
f 5/47/8 30/45/8 29/44/8
f 29/44/8 4/46/8 5/47/8
f 6/51/9 31/49/9 30/48/9
f 30/48/9 5/50/9 6/51/9
f 12/55/10 33/53/10 32/52/10
f 32/52/10 11/54/10 12/55/10
f 11/59/11 32/57/11 34/56/11
f 34/56/11 10/58/11 11/59/11
f 13/63/12 35/61/12 33/60/12
f 33/60/12 12/62/12 13/63/12
f 14/67/13 36/65/13 35/64/13
f 35/64/13 13/66/13 14/67/13
f 15/71/14 37/69/14 36/68/14
f 36/68/14 14/70/14 15/71/14
f 10/75/15 34/73/15 38/72/15
f 38/72/15 9/74/15 10/75/15
f 9/79/16 38/77/16 39/76/16
f 39/76/16 8/78/16 9/79/16
f 8/83/17 39/81/17 40/80/17
f 40/80/17 7/82/17 8/83/17
f 7/87/18 40/85/18 31/84/18
f 31/84/18 6/86/18 7/87/18
f 16/91/19 41/89/19 37/88/19
f 37/88/19 15/90/19 16/91/19
f 17/95/20 42/93/20 41/92/20
f 41/92/20 16/94/20 17/95/20
f 18/99/21 43/97/21 42/96/21
f 42/96/21 17/98/21 18/99/21
f 19/103/22 44/101/22 43/100/22
f 43/100/22 18/102/22 19/103/22
f 20/107/23 28/105/23 44/104/23
f 44/104/23 19/106/23 20/107/23

