# This file uses centimeters as units for non-parametric coordinates.

mtllib tower_test_4.mtl
g default
v 16.791132 -0.500000 -7.043301
v 14.721944 -0.500000 -13.516008
v 11.460071 -0.500000 -18.893730
v 7.269773 -0.500000 -22.740795
v 2.490520 -0.500000 -24.745537
v -2.490501 -0.500000 -24.745541
v -7.269755 -0.500000 -22.740808
v -11.460058 -0.500000 -18.893749
v -14.721935 -0.500000 -13.516031
v -16.791127 -0.500000 -7.043324
v -17.500003 -0.500000 -0.000009
v -16.791131 -0.500000 7.043307
v -14.721940 -0.500000 13.516016
v -11.460067 -0.500000 18.893738
v -7.269767 -0.500000 22.740799
v -2.490513 -0.500000 24.745537
v 2.490507 -0.500000 24.745539
v 7.269761 -0.500000 22.740803
v 11.460062 -0.500000 18.893742
v 14.721936 -0.500000 13.516023
v 16.791127 -0.500000 7.043315
v 17.500000 -0.500000 0.000000
v 16.791132 0.500000 -7.043301
v 14.721944 0.500000 -13.516008
v 11.460071 0.500000 -18.893730
v 7.269773 0.500000 -22.740795
v 2.490520 0.500000 -24.745537
v -2.490501 0.500000 -24.745541
v -7.269755 0.500000 -22.740808
v -11.460058 0.500000 -18.893749
v -14.721935 0.500000 -13.516031
v -16.791127 0.500000 -7.043324
v -17.500003 0.500000 -0.000009
v -16.791131 0.500000 7.043307
v -14.721940 0.500000 13.516016
v -11.460067 0.500000 18.893738
v -7.269767 0.500000 22.740799
v -2.490513 0.500000 24.745537
v 2.490507 0.500000 24.745539
v 7.269761 0.500000 22.740803
v 11.460062 0.500000 18.893742
v 14.721936 0.500000 13.516023
v 16.791127 0.500000 7.043315
v 17.500000 0.500000 0.000000
v 0.000000 -0.500000 0.000000
v 0.000000 0.500000 0.000000
vt 0.649921 0.112229
vt 0.631446 0.071775
vt 0.602322 0.038164
vt 0.564909 0.014120
vt 0.522237 0.001590
vt 0.477763 0.001590
vt 0.435091 0.014120
vt 0.397678 0.038164
vt 0.368554 0.071775
vt 0.350079 0.112229
vt 0.343750 0.156250
vt 0.350079 0.200271
vt 0.368554 0.240725
vt 0.397678 0.274336
vt 0.435091 0.298380
vt 0.477763 0.310910
vt 0.522237 0.310910
vt 0.564909 0.298380
vt 0.602322 0.274336
vt 0.631446 0.240725
vt 0.649921 0.200271
vt 0.656250 0.156250
vt 0.375000 0.312500
vt 0.386364 0.312500
vt 0.397727 0.312500
vt 0.409091 0.312500
vt 0.420455 0.312500
vt 0.431818 0.312500
vt 0.443182 0.312500
vt 0.454545 0.312500
vt 0.465909 0.312500
vt 0.477273 0.312500
vt 0.488636 0.312500
vt 0.500000 0.312500
vt 0.511364 0.312500
vt 0.522727 0.312500
vt 0.534091 0.312500
vt 0.545454 0.312500
vt 0.556818 0.312500
vt 0.568182 0.312500
vt 0.579545 0.312500
vt 0.590909 0.312500
vt 0.602273 0.312500
vt 0.613636 0.312500
vt 0.625000 0.312500
vt 0.375000 0.688440
vt 0.386364 0.688440
vt 0.397727 0.688440
vt 0.409091 0.688440
vt 0.420455 0.688440
vt 0.431818 0.688440
vt 0.443182 0.688440
vt 0.454545 0.688440
vt 0.465909 0.688440
vt 0.477273 0.688440
vt 0.488636 0.688440
vt 0.500000 0.688440
vt 0.511364 0.688440
vt 0.522727 0.688440
vt 0.534091 0.688440
vt 0.545454 0.688440
vt 0.556818 0.688440
vt 0.568182 0.688440
vt 0.579545 0.688440
vt 0.590909 0.688440
vt 0.602273 0.688440
vt 0.613636 0.688440
vt 0.625000 0.688440
vt 0.649921 0.799729
vt 0.631446 0.759275
vt 0.602322 0.725664
vt 0.564909 0.701620
vt 0.522237 0.689090
vt 0.477763 0.689090
vt 0.435091 0.701620
vt 0.397678 0.725664
vt 0.368554 0.759275
vt 0.350079 0.799729
vt 0.343750 0.843750
vt 0.350079 0.887771
vt 0.368554 0.928225
vt 0.397678 0.961836
vt 0.435091 0.985880
vt 0.477763 0.998410
vt 0.522237 0.998410
vt 0.564909 0.985880
vt 0.602322 0.961836
vt 0.631446 0.928225
vt 0.649921 0.887771
vt 0.656250 0.843750
vt 0.500000 0.150000
vt 0.500000 0.837500
vn 0.979524 0.000000 -0.201330
vn 0.911969 0.000000 -0.410260
vn 0.911969 0.000000 -0.410260
vn 0.979524 0.000000 -0.201330
vn 0.777884 0.000000 -0.628408
vn 0.777884 0.000000 -0.628408
vn 0.546405 0.000000 -0.837521
vn 0.546405 0.000000 -0.837521
vn 0.201198 0.000000 -0.979551
vn 0.201198 0.000000 -0.979551
vn -0.201197 0.000000 -0.979551
vn -0.201197 0.000000 -0.979551
vn -0.546404 0.000000 -0.837522
vn -0.546404 0.000000 -0.837522
vn -0.777884 0.000000 -0.628409
vn -0.777884 0.000000 -0.628409
vn -0.911968 0.000000 -0.410261
vn -0.911968 0.000000 -0.410261
vn -0.979523 0.000000 -0.201330
vn -0.979523 0.000000 -0.201330
vn -1.000000 0.000000 -0.000000
vn -1.000000 0.000000 -0.000000
vn -0.979524 0.000000 0.201330
vn -0.979524 0.000000 0.201330
vn -0.911968 0.000000 0.410260
vn -0.911968 0.000000 0.410260
vn -0.777884 0.000000 0.628408
vn -0.777884 0.000000 0.628408
vn -0.546405 0.000000 0.837521
vn -0.546405 0.000000 0.837521
vn -0.201198 0.000000 0.979551
vn -0.201198 0.000000 0.979551
vn 0.201197 0.000000 0.979551
vn 0.201197 0.000000 0.979551
vn 0.546405 0.000000 0.837521
vn 0.546405 0.000000 0.837521
vn 0.777884 0.000000 0.628408
vn 0.777884 0.000000 0.628408
vn 0.911968 0.000000 0.410260
vn 0.911968 0.000000 0.410260
vn 0.979523 0.000000 0.201330
vn 0.979523 0.000000 0.201330
vn 1.000000 0.000000 0.000000
vn 1.000000 0.000000 0.000000
vn 0.000000 -1.000000 0.000000
vn 0.000000 -1.000000 0.000000
vn 0.000000 -1.000000 0.000000
vn 0.000000 -1.000000 0.000000
vn 0.000000 -1.000000 0.000000
vn 0.000000 -1.000000 0.000000
vn 0.000000 -1.000000 0.000000
vn 0.000000 -1.000000 0.000000
vn 0.000000 -1.000000 0.000000
vn 0.000000 -1.000000 0.000000
vn 0.000000 -1.000000 0.000000
vn 0.000000 -1.000000 0.000000
vn 0.000000 -1.000000 0.000000
vn 0.000000 -1.000000 0.000000
vn 0.000000 -1.000000 0.000000
vn 0.000000 -1.000000 0.000000
vn 0.000000 -1.000000 0.000000
vn 0.000000 -1.000000 0.000000
vn 0.000000 -1.000000 0.000000
vn 0.000000 -1.000000 0.000000
vn 0.000000 -1.000000 0.000000
vn 0.000000 -1.000000 0.000000
vn 0.000000 -1.000000 0.000000
vn 0.000000 1.000000 0.000000
vn 0.000000 1.000000 0.000000
vn 0.000000 1.000000 0.000000
vn 0.000000 1.000000 0.000000
vn 0.000000 1.000000 0.000000
vn 0.000000 1.000000 0.000000
vn 0.000000 1.000000 0.000000
vn 0.000000 1.000000 0.000000
vn 0.000000 1.000000 0.000000
vn 0.000000 1.000000 0.000000
vn 0.000000 1.000000 0.000000
vn 0.000000 1.000000 0.000000
vn 0.000000 1.000000 0.000000
vn 0.000000 1.000000 0.000000
vn 0.000000 1.000000 0.000000
vn 0.000000 1.000000 0.000000
vn 0.000000 1.000000 0.000000
vn 0.000000 1.000000 0.000000
vn 0.000000 1.000000 0.000000
vn 0.000000 1.000000 0.000000
vn 0.000000 1.000000 0.000000
vn 0.000000 1.000000 0.000000
vn 0.000000 1.000000 0.000000
s 1
g pCylinder1
usemtl initialShadingGroup
f 1/23/1 2/24/2 24/47/3 23/46/4
f 2/24/2 3/25/5 25/48/6 24/47/3
f 3/25/5 4/26/7 26/49/8 25/48/6
f 4/26/7 5/27/9 27/50/10 26/49/8
f 5/27/9 6/28/11 28/51/12 27/50/10
f 6/28/11 7/29/13 29/52/14 28/51/12
f 7/29/13 8/30/15 30/53/16 29/52/14
f 8/30/15 9/31/17 31/54/18 30/53/16
f 9/31/17 10/32/19 32/55/20 31/54/18
f 10/32/19 11/33/21 33/56/22 32/55/20
f 11/33/21 12/34/23 34/57/24 33/56/22
f 12/34/23 13/35/25 35/58/26 34/57/24
f 13/35/25 14/36/27 36/59/28 35/58/26
f 14/36/27 15/37/29 37/60/30 36/59/28
f 15/37/29 16/38/31 38/61/32 37/60/30
f 16/38/31 17/39/33 39/62/34 38/61/32
f 17/39/33 18/40/35 40/63/36 39/62/34
f 18/40/35 19/41/37 41/64/38 40/63/36
f 19/41/37 20/42/39 42/65/40 41/64/38
f 20/42/39 21/43/41 43/66/42 42/65/40
f 21/43/41 22/44/43 44/67/44 43/66/42
f 22/44/43 1/45/1 23/68/4 44/67/44
s 2
f 2/2/45 1/1/46 45/91/47
f 3/3/48 2/2/45 45/91/47
f 4/4/49 3/3/48 45/91/47
f 5/5/50 4/4/49 45/91/47
f 6/6/51 5/5/50 45/91/47
f 7/7/52 6/6/51 45/91/47
f 8/8/53 7/7/52 45/91/47
f 9/9/54 8/8/53 45/91/47
f 10/10/55 9/9/54 45/91/47
f 11/11/56 10/10/55 45/91/47
f 12/12/57 11/11/56 45/91/47
f 13/13/58 12/12/57 45/91/47
f 14/14/59 13/13/58 45/91/47
f 15/15/60 14/14/59 45/91/47
f 16/16/61 15/15/60 45/91/47
f 17/17/62 16/16/61 45/91/47
f 18/18/63 17/17/62 45/91/47
f 19/19/64 18/18/63 45/91/47
f 20/20/65 19/19/64 45/91/47
f 21/21/66 20/20/65 45/91/47
f 22/22/67 21/21/66 45/91/47
f 1/1/46 22/22/67 45/91/47
s 3
f 23/89/68 24/88/69 46/92/70
f 24/88/69 25/87/71 46/92/70
f 25/87/71 26/86/72 46/92/70
f 26/86/72 27/85/73 46/92/70
f 27/85/73 28/84/74 46/92/70
f 28/84/74 29/83/75 46/92/70
f 29/83/75 30/82/76 46/92/70
f 30/82/76 31/81/77 46/92/70
f 31/81/77 32/80/78 46/92/70
f 32/80/78 33/79/79 46/92/70
f 33/79/79 34/78/80 46/92/70
f 34/78/80 35/77/81 46/92/70
f 35/77/81 36/76/82 46/92/70
f 36/76/82 37/75/83 46/92/70
f 37/75/83 38/74/84 46/92/70
f 38/74/84 39/73/85 46/92/70
f 39/73/85 40/72/86 46/92/70
f 40/72/86 41/71/87 46/92/70
f 41/71/87 42/70/88 46/92/70
f 42/70/88 43/69/89 46/92/70
f 43/69/89 44/90/90 46/92/70
f 44/90/90 23/89/68 46/92/70
