# This file uses centimeters as units for non-parametric coordinates.

mtllib 2x2_platform2.mtl
g default
v -0.900000 0.400000 0.900000
v 0.000000 0.400000 0.900000
v -0.900000 0.400000 0.000000
v 0.900000 0.400000 0.900000
v 0.900000 0.400000 0.000000
v 0.000000 0.400000 -0.900000
v -0.900000 0.400000 -0.900000
v 0.900000 0.400000 -0.900000
v -0.900000 -0.400000 -0.900000
v 0.000000 -0.400000 -0.900000
v -0.900000 -0.400000 0.000000
v 0.900000 -0.400000 -0.900000
v 0.900000 -0.400000 0.000000
v 0.000000 -0.400000 0.900000
v -0.900000 -0.400000 0.900000
v 0.900000 -0.400000 0.900000
v 0.000000 0.600000 0.900000
v -0.900000 0.600000 0.900000
v -0.900000 0.600000 0.000000
v 0.900000 0.600000 0.900000
v 0.900000 0.600000 0.000000
v -0.900000 0.600000 -0.900000
v 0.000000 0.600000 -0.900000
v 0.900000 0.600000 -0.900000
v 0.000000 -0.600000 -0.900000
v -0.900000 -0.600000 -0.900000
v -0.900000 -0.600000 0.000000
v 0.900000 -0.600000 -0.900000
v 0.900000 -0.600000 0.000000
v -0.900000 -0.600000 0.900000
v 0.000000 -0.600000 0.900000
v 0.900000 -0.600000 0.900000
v 1.100000 -0.400000 -0.900000
v 1.100000 -0.400000 0.000000
v 1.100000 0.400000 -0.900000
v 1.100000 0.400000 0.000000
v 1.100000 -0.400000 0.900000
v 1.100000 0.400000 0.900000
v -1.100000 -0.400000 0.000000
v -1.100000 -0.400000 -0.900000
v -1.100000 0.400000 -0.900000
v -1.100000 0.400000 0.000000
v -1.100000 -0.400000 0.900000
v -1.100000 0.400000 0.900000
v 0.000000 -0.400000 1.100000
v -0.900000 -0.400000 1.100000
v -0.900000 0.400000 1.100000
v 0.000000 0.400000 1.100000
v 0.900000 -0.400000 1.100000
v 0.900000 0.400000 1.100000
v 0.000000 0.400000 -1.100000
v -0.900000 0.400000 -1.100000
v -0.900000 -0.400000 -1.100000
v 0.000000 -0.400000 -1.100000
v 0.900000 0.400000 -1.100000
v 0.900000 -0.400000 -1.100000
v -1.000010 0.600000 1.000010
v -1.100000 0.500010 1.000010
v -1.000010 0.500010 1.100000
v 0.000000 0.600000 1.000010
v 0.000000 0.500010 1.100000
v -1.000010 0.600000 0.000000
v -1.100000 0.500010 0.000000
v 1.100000 0.500010 1.000010
v 1.000010 0.600000 1.000010
v 1.000010 0.500010 1.100000
v 1.000010 0.600000 0.000000
v 1.100000 0.500010 0.000000
v -1.100000 0.500010 -1.000010
v -1.000010 0.600000 -1.000010
v -1.000010 0.500010 -1.100000
v 0.000000 0.600000 -1.000010
v 0.000000 0.500010 -1.100000
v 1.000010 0.600000 -1.000010
v 1.100000 0.500010 -1.000010
v 1.000010 0.500010 -1.100000
v -1.000010 -0.600000 -1.000010
v -1.100000 -0.500010 -1.000010
v -1.000010 -0.500010 -1.100000
v 0.000000 -0.600000 -1.000010
v 0.000000 -0.500010 -1.100000
v -1.000010 -0.600000 0.000000
v -1.100000 -0.500010 0.000000
v 1.100000 -0.500010 -1.000010
v 1.000010 -0.600000 -1.000010
v 1.000010 -0.500010 -1.100000
v 1.000010 -0.600000 0.000000
v 1.100000 -0.500010 0.000000
v -1.100000 -0.500010 1.000010
v -1.000010 -0.600000 1.000010
v -1.000010 -0.500010 1.100000
v 0.000000 -0.600000 1.000010
v 0.000000 -0.500010 1.100000
v 1.000010 -0.600000 1.000010
v 1.100000 -0.500010 1.000010
v 1.000010 -0.500010 1.100000
vt 0.375009 0.250009
vt 0.500000 0.250002
vt 0.375004 0.375001
vt 0.624991 0.250009
vt 0.624996 0.375001
vt 0.500000 0.499998
vt 0.375010 0.499991
vt 0.624990 0.499991
vt 0.375009 0.750009
vt 0.499999 0.750003
vt 0.375006 0.875000
vt 0.624993 0.750007
vt 0.624998 0.875000
vt 0.499999 0.999997
vt 0.375009 0.999991
vt 0.624993 0.999993
vt 0.750000 0.000006
vt 0.874989 0.000017
vt 0.874990 0.249982
vt 0.750001 0.249994
vt 0.625010 0.000019
vt 0.625008 0.249985
vt 0.125011 0.000017
vt 0.250001 0.000014
vt 0.249999 0.249994
vt 0.125009 0.249982
vt 0.374991 0.000019
vt 0.374992 0.249984
vt 0.375014 0.000022
vt 0.500000 0.000009
vt 0.500000 0.249995
vt 0.375012 0.249980
vt 0.624992 0.000012
vt 0.624988 0.249980
vt 0.375012 0.500020
vt 0.500000 0.500005
vt 0.500000 0.749991
vt 0.375014 0.749979
vt 0.624988 0.500020
vt 0.624991 0.749990
vt 0.375000 0.261362
vt 0.375000 0.375000
vt 0.375000 0.488638
vt 0.625000 0.261362
vt 0.625000 0.375000
vt 0.625000 0.488638
vt 0.125000 0.229169
vt 0.125000 0.020831
vt 0.875000 0.229169
vt 0.875000 0.020831
vt 0.375000 0.761362
vt 0.375000 0.875000
vt 0.375000 0.988638
vt 0.625000 0.761362
vt 0.625000 0.875000
vt 0.625000 0.988638
vt 0.386362 1.000000
vt 0.500000 1.000000
vt 0.613638 1.000000
vt 0.500000 0.250000
vt 0.375000 0.250000
vt 0.375000 0.250000
vt 0.375000 0.375000
vt 0.625000 0.250000
vt 0.500000 0.250000
vt 0.625000 0.375000
vt 0.625000 0.250000
vt 0.375000 0.500000
vt 0.500000 0.500000
vt 0.375000 0.375000
vt 0.375000 0.500000
vt 0.625000 0.500000
vt 0.625000 0.375000
vt 0.500000 0.500000
vt 0.625000 0.500000
vt 0.500000 0.750000
vt 0.375000 0.750000
vt 0.375000 0.750000
vt 0.375000 0.875000
vt 0.625000 0.750000
vt 0.500000 0.750000
vt 0.625000 0.875000
vt 0.625000 0.750000
vt 0.375000 1.000000
vt 0.500000 1.000000
vt 0.375000 0.875000
vt 0.375000 1.000000
vt 0.625000 1.000000
vt 0.625000 0.875000
vt 0.500000 1.000000
vt 0.625000 1.000000
vt 0.875000 0.000000
vt 0.750000 0.000000
vt 0.875000 0.250000
vt 0.875000 0.000000
vt 0.750000 0.250000
vt 0.875000 0.250000
vt 0.750000 0.000000
vt 0.625000 0.000000
vt 0.625000 0.250000
vt 0.750000 0.250000
vt 0.625000 0.000000
vt 0.625000 0.250000
vt 0.250000 0.000000
vt 0.125000 0.000000
vt 0.125000 0.250000
vt 0.250000 0.250000
vt 0.125000 0.000000
vt 0.125000 0.250000
vt 0.375000 0.000000
vt 0.250000 0.000000
vt 0.375000 0.250000
vt 0.375000 0.000000
vt 0.250000 0.250000
vt 0.375000 0.250000
vt 0.500000 0.000000
vt 0.375000 0.000000
vt 0.375000 0.250000
vt 0.500000 0.250000
vt 0.375000 0.000000
vt 0.375000 0.250000
vt 0.625000 0.000000
vt 0.500000 0.000000
vt 0.625000 0.250000
vt 0.625000 0.000000
vt 0.500000 0.250000
vt 0.625000 0.250000
vt 0.500000 0.500000
vt 0.375000 0.500000
vt 0.375000 0.750000
vt 0.500000 0.750000
vt 0.375000 0.500000
vt 0.375000 0.750000
vt 0.625000 0.500000
vt 0.500000 0.500000
vt 0.625000 0.750000
vt 0.625000 0.500000
vt 0.500000 0.750000
vt 0.625000 0.750000
vt 0.625000 0.500000
vt 0.375000 0.750000
vt 0.375000 1.000000
vt 0.625000 1.000000
vn 0.000000 0.000000 -1.000000
vn 0.000000 0.000000 -1.000000
vn 0.000000 0.000000 -1.000000
vn 0.000000 0.000000 -1.000000
vn 1.000000 0.000000 0.000000
vn 1.000000 0.000000 0.000000
vn 1.000000 0.000000 0.000000
vn 1.000000 0.000000 0.000000
vn 0.000000 0.000000 -1.000000
vn 0.000000 0.000000 -1.000000
vn -1.000000 0.000000 0.000000
vn -1.000000 0.000000 0.000000
vn -1.000000 0.000000 0.000000
vn -1.000000 0.000000 0.000000
vn 0.000000 0.000000 1.000000
vn 0.000000 0.000000 1.000000
vn 0.000000 0.000000 1.000000
vn 0.000000 0.000000 1.000000
vn 1.000000 0.000000 0.000000
vn 1.000000 0.000000 0.000000
vn -1.000000 0.000000 0.000000
vn -1.000000 0.000000 0.000000
vn 0.000000 0.000000 1.000000
vn 0.000000 0.000000 1.000000
vn 0.000000 0.000000 1.000000
vn 0.000000 0.000000 1.000000
vn 0.000000 0.000000 1.000000
vn 0.000000 0.000000 1.000000
vn 1.000000 0.000000 0.000000
vn 1.000000 0.000000 0.000000
vn 1.000000 0.000000 0.000000
vn 1.000000 0.000000 0.000000
vn 0.000000 0.000000 1.000000
vn 0.000000 0.000000 1.000000
vn -1.000000 0.000000 0.000000
vn -1.000000 0.000000 0.000000
vn -1.000000 0.000000 0.000000
vn -1.000000 0.000000 0.000000
vn 0.000000 0.000000 -1.000000
vn 0.000000 0.000000 -1.000000
vn 0.000000 0.000000 -1.000000
vn 0.000000 0.000000 -1.000000
vn 1.000000 0.000000 0.000000
vn 1.000000 0.000000 0.000000
vn -1.000000 0.000000 0.000000
vn -1.000000 0.000000 0.000000
vn 0.000000 0.000000 -1.000000
vn 0.000000 0.000000 -1.000000
vn 0.000000 1.000000 0.000000
vn 0.000000 1.000000 0.000000
vn 0.000000 1.000000 0.000000
vn 0.000000 1.000000 0.000000
vn -0.000000 0.000000 1.000000
vn -0.000000 0.000000 1.000000
vn -0.000000 0.000000 1.000000
vn -0.000000 0.000000 1.000000
vn -0.000000 -1.000000 0.000000
vn -0.000000 -1.000000 0.000000
vn -0.000000 -1.000000 0.000000
vn -0.000000 -1.000000 0.000000
vn 0.000000 1.000000 0.000000
vn 0.000000 1.000000 0.000000
vn -0.000000 -1.000000 0.000000
vn -0.000000 -1.000000 0.000000
vn -0.000000 0.000000 -1.000000
vn -0.000000 0.000000 -1.000000
vn -0.000000 0.000000 -1.000000
vn -0.000000 0.000000 -1.000000
vn 0.000000 1.000000 0.000000
vn 0.000000 1.000000 0.000000
vn 0.000000 1.000000 0.000000
vn 0.000000 1.000000 0.000000
vn 0.000000 -1.000000 0.000000
vn 0.000000 -1.000000 0.000000
vn 0.000000 -1.000000 0.000000
vn 0.000000 -1.000000 0.000000
vn 0.000000 0.000000 1.000000
vn 0.000000 0.000000 1.000000
vn 0.000000 0.000000 1.000000
vn 0.000000 0.000000 1.000000
vn 0.000000 1.000000 0.000000
vn 0.000000 1.000000 0.000000
vn 0.000000 0.000000 -1.000000
vn 0.000000 0.000000 -1.000000
vn 0.000000 0.000000 -1.000000
vn 0.000000 0.000000 -1.000000
vn 0.000000 -1.000000 0.000000
vn 0.000000 -1.000000 0.000000
vn 0.000000 1.000000 0.000000
vn 0.000000 1.000000 0.000000
vn 0.000000 1.000000 0.000000
vn 0.000000 1.000000 0.000000
vn 0.000000 -1.000000 -0.000000
vn 0.000000 -1.000000 -0.000000
vn 0.000000 -1.000000 -0.000000
vn 0.000000 -1.000000 -0.000000
vn 1.000000 0.000000 0.000000
vn 1.000000 0.000000 0.000000
vn 1.000000 0.000000 0.000000
vn 1.000000 0.000000 0.000000
vn 0.000000 1.000000 0.000000
vn 0.000000 1.000000 0.000000
vn -1.000000 0.000000 0.000000
vn -1.000000 0.000000 0.000000
vn -1.000000 0.000000 0.000000
vn -1.000000 0.000000 0.000000
vn 0.000000 -1.000000 -0.000000
vn 0.000000 -1.000000 -0.000000
vn 0.000000 -1.000000 0.000000
vn 0.000000 -1.000000 0.000000
vn 0.000000 -1.000000 0.000000
vn 0.000000 -1.000000 0.000000
vn 0.000000 1.000000 0.000000
vn 0.000000 1.000000 0.000000
vn 0.000000 1.000000 0.000000
vn 0.000000 1.000000 0.000000
vn 1.000000 0.000000 -0.000000
vn 1.000000 0.000000 -0.000000
vn 1.000000 0.000000 -0.000000
vn 1.000000 0.000000 -0.000000
vn 0.000000 -1.000000 0.000000
vn 0.000000 -1.000000 0.000000
vn -1.000000 0.000000 -0.000000
vn -1.000000 0.000000 -0.000000
vn -1.000000 0.000000 -0.000000
vn -1.000000 0.000000 -0.000000
vn 0.000000 1.000000 0.000000
vn 0.000000 1.000000 0.000000
vn 0.000000 0.707107 0.707107
vn 0.000000 0.707107 0.707107
vn 0.000000 0.707107 0.707107
vn 0.000000 0.707107 0.707107
vn -0.707107 0.707107 0.000000
vn -0.707107 0.707107 0.000000
vn -0.707107 0.707107 0.000000
vn -0.707107 0.707107 0.000000
vn -0.707107 0.000000 0.707107
vn -0.707107 0.000000 0.707107
vn -0.707107 0.000000 0.707107
vn -0.707107 0.000000 0.707107
vn 0.000000 0.707107 0.707107
vn 0.000000 0.707107 0.707107
vn -0.707107 0.707107 0.000000
vn -0.707107 0.707107 0.000000
vn 0.707107 0.000000 0.707107
vn 0.707107 0.000000 0.707107
vn 0.707107 0.000000 0.707107
vn 0.707107 0.000000 0.707107
vn 0.707107 0.707107 0.000000
vn 0.707107 0.707107 0.000000
vn 0.707107 0.707107 0.000000
vn 0.707107 0.707107 0.000000
vn 0.707107 0.707107 0.000000
vn 0.707107 0.707107 0.000000
vn -0.707107 0.000000 -0.707107
vn -0.707107 0.000000 -0.707107
vn -0.707107 0.000000 -0.707107
vn -0.707107 0.000000 -0.707107
vn 0.000000 0.707107 -0.707107
vn 0.000000 0.707107 -0.707107
vn 0.000000 0.707107 -0.707107
vn 0.000000 0.707107 -0.707107
vn 0.000000 0.707107 -0.707107
vn 0.000000 0.707107 -0.707107
vn 0.707107 0.000000 -0.707107
vn 0.707107 0.000000 -0.707107
vn 0.707107 0.000000 -0.707107
vn 0.707107 0.000000 -0.707107
vn 0.000000 -0.707107 -0.707107
vn 0.000000 -0.707107 -0.707107
vn 0.000000 -0.707107 -0.707107
vn 0.000000 -0.707107 -0.707107
vn -0.707107 -0.707107 0.000000
vn -0.707107 -0.707107 0.000000
vn -0.707107 -0.707107 0.000000
vn -0.707107 -0.707107 0.000000
vn 0.000000 -0.707107 -0.707107
vn 0.000000 -0.707107 -0.707107
vn -0.707107 -0.707107 0.000000
vn -0.707107 -0.707107 0.000000
vn 0.707107 -0.707107 0.000000
vn 0.707107 -0.707107 0.000000
vn 0.707107 -0.707107 0.000000
vn 0.707107 -0.707107 0.000000
vn 0.707107 -0.707107 0.000000
vn 0.707107 -0.707107 0.000000
vn 0.000000 -0.707107 0.707107
vn 0.000000 -0.707107 0.707107
vn 0.000000 -0.707107 0.707107
vn 0.000000 -0.707107 0.707107
vn 0.000000 -0.707107 0.707107
vn 0.000000 -0.707107 0.707107
vn 0.000000 1.000000 0.000000
vn 0.000000 1.000000 0.000000
vn 0.000000 1.000000 0.000000
vn 0.000000 1.000000 0.000000
vn 0.000000 1.000000 0.000000
vn 0.000000 1.000000 0.000000
vn 0.000000 1.000000 0.000000
vn 0.000000 1.000000 0.000000
vn 0.000000 1.000000 0.000000
vn 0.000000 1.000000 0.000000
vn 0.000000 1.000000 -0.000000
vn 0.000000 1.000000 0.000000
vn 0.000000 1.000000 0.000000
vn 0.000000 1.000000 -0.000000
vn 0.000000 1.000000 -0.000000
vn 0.000000 1.000000 -0.000000
vn 0.000000 -1.000000 -0.000000
vn 0.000000 -1.000000 -0.000000
vn 0.000000 -1.000000 -0.000000
vn 0.000000 -1.000000 -0.000000
vn 0.000000 -1.000000 0.000000
vn 0.000000 -1.000000 0.000000
vn 0.000000 -1.000000 0.000000
vn 0.000000 -1.000000 0.000000
vn 0.000000 -1.000000 0.000000
vn 0.000000 -1.000000 0.000000
vn 0.000000 -1.000000 0.000000
vn 0.000000 -1.000000 0.000000
vn 0.000000 -1.000000 0.000000
vn 0.000000 -1.000000 0.000000
vn 0.000000 -1.000000 0.000000
vn 0.000000 -1.000000 0.000000
vn 1.000000 -0.000001 0.000000
vn 1.000000 -0.000000 0.000000
vn 1.000000 -0.000000 0.000000
vn 1.000000 -0.000001 0.000000
vn 1.000000 0.000000 0.000000
vn 1.000000 0.000000 0.000000
vn 1.000000 0.000001 0.000000
vn 1.000000 0.000001 0.000000
vn 1.000000 -0.000000 0.000000
vn 1.000000 -0.000000 0.000000
vn 1.000000 0.000000 0.000000
vn 1.000000 0.000000 0.000000
vn -1.000000 -0.000000 0.000000
vn -1.000000 -0.000001 0.000000
vn -1.000000 -0.000001 0.000000
vn -1.000000 -0.000000 0.000000
vn -1.000000 0.000001 0.000000
vn -1.000000 0.000000 0.000000
vn -1.000000 0.000000 0.000000
vn -1.000000 0.000001 0.000000
vn -1.000000 -0.000000 0.000000
vn -1.000000 -0.000000 0.000000
vn -1.000000 0.000000 0.000000
vn -1.000000 0.000000 0.000000
vn 0.000000 0.000000 1.000000
vn 0.000000 0.000000 1.000000
vn 0.000000 0.000000 1.000000
vn 0.000000 0.000000 1.000000
vn 0.000000 0.000000 1.000000
vn 0.000000 0.000000 1.000000
vn 0.000000 0.000000 1.000000
vn 0.000000 0.000000 1.000000
vn -0.000000 0.000000 1.000000
vn -0.000000 0.000000 1.000000
vn -0.000000 0.000000 1.000000
vn -0.000000 0.000000 1.000000
vn 0.000000 0.000000 -1.000000
vn 0.000000 0.000000 -1.000000
vn 0.000000 0.000000 -1.000000
vn 0.000000 0.000000 -1.000000
vn 0.000000 0.000000 -1.000000
vn 0.000000 0.000000 -1.000000
vn 0.000000 0.000000 -1.000000
vn 0.000000 0.000000 -1.000000
vn -0.000000 0.000000 -1.000000
vn -0.000000 0.000000 -1.000000
vn -0.000000 0.000000 -1.000000
vn -0.000000 0.000000 -1.000000
vn -0.577350 0.577350 0.577351
vn -0.577350 0.577350 0.577351
vn -0.577350 0.577350 0.577351
vn 0.577350 0.577350 0.577351
vn 0.577350 0.577350 0.577351
vn 0.577350 0.577350 0.577351
vn -0.577350 0.577350 -0.577351
vn -0.577350 0.577350 -0.577351
vn -0.577350 0.577350 -0.577351
vn 0.577350 0.577350 -0.577351
vn 0.577350 0.577350 -0.577351
vn 0.577350 0.577350 -0.577351
vn -0.577350 -0.577350 -0.577351
vn -0.577350 -0.577350 -0.577351
vn -0.577350 -0.577350 -0.577351
vn 0.577350 -0.577350 -0.577351
vn 0.577350 -0.577350 -0.577351
vn 0.577350 -0.577350 -0.577351
vn -0.577350 -0.577350 0.577351
vn -0.577350 -0.577350 0.577351
vn -0.577350 -0.577350 0.577351
vn 0.577350 -0.577350 0.577351
vn 0.577350 -0.577350 0.577351
vn 0.577350 -0.577350 0.577351
s 1
g pCube5
usemtl initialShadingGroup
f 2/2/1 1/1/2 18/61/3 17/65/4
s 2
f 1/1/5 3/3/6 19/63/7 18/61/8
s 1
f 4/4/9 2/2/1 17/65/4 20/67/10
s 3
f 5/5/11 4/4/12 20/67/13 21/73/14
s 4
f 7/7/15 6/6/16 23/69/17 22/71/18
s 2
f 3/3/6 7/7/19 22/71/20 19/63/7
s 3
f 8/8/21 5/5/11 21/73/14 24/75/22
s 4
f 6/6/16 8/8/23 24/75/24 23/69/17
s 5
f 10/10/25 9/9/26 26/77/27 25/81/28
s 6
f 9/9/29 11/11/30 27/79/31 26/77/32
s 5
f 12/12/33 10/10/25 25/81/28 28/83/34
s 7
f 13/13/35 12/12/36 28/83/37 29/89/38
s 8
f 15/15/39 14/14/40 31/85/41 30/87/42
s 6
f 11/11/30 15/15/43 30/87/44 27/79/31
s 7
f 16/16/45 13/13/35 29/89/38 32/91/46
s 8
f 14/14/40 16/16/47 32/91/48 31/85/41
s 9
f 12/18/49 13/17/50 34/93/51 33/95/52
s off
f 8/19/53 12/18/54 33/95/55 35/97/56
s 10
f 5/20/57 8/19/58 35/97/59 36/101/60
s 9
f 13/17/50 16/21/61 37/99/62 34/93/51
s 10
f 4/22/63 5/20/57 36/101/60 38/103/64
s off
f 16/21/65 4/22/66 38/103/67 37/99/68
s 11
f 11/24/69 9/23/70 40/105/71 39/111/72
s 12
f 7/26/73 3/25/74 42/107/75 41/109/76
s off
f 9/23/77 7/26/78 41/109/79 40/105/80
s 11
f 15/27/81 11/24/69 39/111/72 43/113/82
s off
f 1/28/83 15/27/84 43/113/85 44/115/86
s 12
f 3/25/74 1/28/87 44/115/88 42/107/75
s 13
f 14/30/89 15/29/90 46/117/91 45/123/92
s 14
f 1/32/93 2/31/94 48/119/95 47/121/96
s off
f 15/29/97 1/32/98 47/121/99 46/117/100
s 13
f 16/33/101 14/30/89 45/123/92 49/125/102
s off
f 4/34/103 16/33/104 49/125/105 50/127/106
s 14
f 2/31/94 4/34/107 50/127/108 48/119/95
s 15
f 6/36/109 7/35/110 52/129/111 51/135/112
s 16
f 9/38/113 10/37/114 54/131/115 53/133/116
s off
f 7/35/117 9/38/118 53/133/119 52/129/120
s 15
f 8/39/121 6/36/109 51/135/112 55/137/122
s off
f 12/40/123 8/39/124 55/137/125 56/139/126
s 16
f 10/37/114 12/40/127 56/139/128 54/131/115
s 17
f 57/62/129 59/118/130 61/126/131 60/60/132
s 18
f 58/41/133 57/62/134 62/70/135 63/42/136
s off
f 59/118/137 58/112/138 89/110/139 91/120/140
s 17
f 60/60/132 61/126/131 66/124/141 65/64/142
s 18
f 63/42/136 62/70/135 70/68/143 69/43/144
s off
f 64/100/145 66/124/146 96/122/147 95/102/148
s 19
f 65/64/149 64/44/150 68/45/151 67/66/152
f 67/66/152 68/45/151 75/46/153 74/72/154
s off
f 69/106/155 71/47/156 79/48/157 78/108/158
s 20
f 71/132/159 70/68/160 72/74/161 73/128/162
f 73/128/162 72/74/161 74/72/163 76/134/164
s off
f 76/49/165 75/94/166 84/92/167 86/50/168
s 21
f 77/78/169 79/130/170 81/138/171 80/76/172
s 22
f 78/51/173 77/78/174 82/86/175 83/52/176
s 21
f 80/76/172 81/138/171 86/136/177 85/80/178
s 22
f 83/52/176 82/86/175 90/84/179 89/53/180
s 23
f 85/80/181 84/54/182 88/55/183 87/82/184
f 87/82/184 88/55/183 95/56/185 94/88/186
s 24
f 91/57/187 90/84/188 92/90/189 93/58/190
f 93/58/190 92/90/189 94/88/191 96/59/192
s 25
f 57/62/193 60/60/194 17/65/195 18/61/196
f 62/70/197 57/62/193 18/61/196 19/63/198
f 60/60/194 65/64/199 20/67/200 17/65/195
f 65/64/199 67/66/201 21/73/202 20/67/200
f 72/74/203 70/68/204 22/71/205 23/69/206
f 70/68/204 62/70/197 19/63/198 22/71/205
f 67/66/201 74/72/207 24/75/208 21/73/202
f 74/72/207 72/74/203 23/69/206 24/75/208
s 26
f 77/78/209 80/76/210 25/81/211 26/77/212
f 82/86/213 77/78/209 26/77/212 27/79/214
f 80/76/210 85/80/215 28/83/216 25/81/211
f 85/80/215 87/82/217 29/89/218 28/83/216
f 92/90/219 90/84/220 30/87/221 31/85/222
f 90/84/220 82/86/213 27/79/214 30/87/221
f 87/82/217 94/88/223 32/91/224 29/89/218
f 94/88/223 92/90/219 31/85/222 32/91/224
s 27
f 88/98/225 84/92/226 33/95/227 34/93/228
f 84/92/226 75/94/229 35/97/230 33/95/227
f 75/94/229 68/96/231 36/101/232 35/97/230
f 95/102/233 88/98/225 34/93/228 37/99/234
f 68/96/231 64/100/235 38/103/236 36/101/232
f 64/100/235 95/102/233 37/99/234 38/103/236
s 28
f 78/108/237 83/104/238 39/111/239 40/105/240
f 63/114/241 69/106/242 41/109/243 42/107/244
f 69/106/242 78/108/237 40/105/240 41/109/243
f 83/104/238 89/110/245 43/113/246 39/111/239
f 89/110/245 58/112/247 44/115/248 43/113/246
f 58/112/247 63/114/241 42/107/244 44/115/248
s 29
f 91/120/249 93/116/250 45/123/251 46/117/252
f 61/126/253 59/118/254 47/121/255 48/119/256
f 59/118/254 91/120/249 46/117/252 47/121/255
f 93/116/250 96/122/257 49/125/258 45/123/251
f 96/122/257 66/124/259 50/127/260 49/125/258
f 66/124/259 61/126/253 48/119/256 50/127/260
s 30
f 71/132/261 73/128/262 51/135/263 52/129/264
f 81/138/265 79/130/266 53/133/267 54/131/268
f 79/130/266 71/132/261 52/129/264 53/133/267
f 73/128/262 76/134/269 55/137/270 51/135/263
f 76/134/269 86/136/271 56/139/272 55/137/270
f 86/136/271 81/138/265 54/131/268 56/139/272
s off
f 57/62/273 58/112/274 59/118/275
f 64/44/276 65/64/277 66/124/278
f 69/43/279 70/68/280 71/132/281
f 74/72/282 75/140/283 76/134/284
f 77/78/285 78/141/286 79/130/287
f 84/54/288 85/80/289 86/136/290
f 89/53/291 90/84/292 91/142/293
f 94/88/294 95/143/295 96/59/296
g default
v -1.000000 -0.500000 1.000000
v 0.000000 -0.500000 1.000000
v 1.000000 -0.500000 1.000000
v -1.000000 0.500000 1.000000
v 0.000000 0.500000 1.000000
v 1.000000 0.500000 1.000000
v -1.000000 0.500000 0.000000
v 0.000000 0.500000 0.000000
v 1.000000 0.500000 0.000000
v -1.000000 0.500000 -1.000000
v 0.000000 0.500000 -1.000000
v 1.000000 0.500000 -1.000000
v -1.000000 -0.500000 -1.000000
v 0.000000 -0.500000 -1.000000
v 1.000000 -0.500000 -1.000000
v -1.000000 -0.500000 0.000000
v 0.000000 -0.500000 0.000000
v 1.000000 -0.500000 0.000000
vt 0.761473 0.130995
vt 0.036694 0.318693
vt 0.036674 0.491368
vt 0.384527 0.516447
vt 0.384507 0.689122
vt 0.421148 0.866799
vt 0.588815 0.303686
vt 0.211832 0.689102
vt 0.593823 0.866782
vt 0.416124 0.321231
vt 0.588798 0.321214
vt 0.766498 0.866766
vt 0.382063 0.146058
vt 0.382044 0.318733
vt 0.766481 0.694091
vt 0.588798 0.131011
vt 0.209369 0.318713
vt 0.593806 0.694108
vt 0.209349 0.491387
vt 0.763977 0.508896
vt 0.421131 0.694124
vt 0.209389 0.146038
vt 0.418628 0.508929
vt 0.036714 0.146018
vt 0.761490 0.493872
vt 0.382024 0.491407
vt 0.416140 0.493906
vt 0.416124 0.131028
vt 0.039138 0.861757
vt 0.761473 0.321197
vt 0.039177 0.516408
vt 0.416140 0.303703
vt 0.211812 0.861777
vt 0.211852 0.516427
vt 0.763994 0.681571
vt 0.384487 0.861797
vt 0.418644 0.681604
vt 0.761490 0.303670
vt 0.588815 0.493889
vt 0.039157 0.689083
vt 0.591319 0.681588
vt 0.591302 0.508913
vn 0.000000 0.000000 1.000000
vn 0.000000 0.000000 1.000000
vn 0.000000 0.000000 1.000000
vn 0.000000 0.000000 1.000000
vn 0.000000 0.000000 1.000000
vn 0.000000 0.000000 1.000000
vn 0.000000 1.000000 0.000000
vn 0.000000 1.000000 0.000000
vn 0.000000 1.000000 0.000000
vn 0.000000 1.000000 0.000000
vn 0.000000 1.000000 0.000000
vn 0.000000 1.000000 0.000000
vn 0.000000 1.000000 0.000000
vn 0.000000 1.000000 0.000000
vn 0.000000 1.000000 0.000000
vn 0.000000 0.000000 -1.000000
vn 0.000000 0.000000 -1.000000
vn 0.000000 0.000000 -1.000000
vn 0.000000 0.000000 -1.000000
vn 0.000000 0.000000 -1.000000
vn 0.000000 0.000000 -1.000000
vn 0.000000 -1.000000 0.000000
vn 0.000000 -1.000000 0.000000
vn 0.000000 -1.000000 0.000000
vn 0.000000 -1.000000 0.000000
vn 0.000000 -1.000000 0.000000
vn 0.000000 -1.000000 0.000000
vn 0.000000 -1.000000 0.000000
vn 0.000000 -1.000000 0.000000
vn 0.000000 -1.000000 0.000000
vn 1.000000 0.000000 0.000000
vn 1.000000 0.000000 0.000000
vn 1.000000 0.000000 0.000000
vn 1.000000 0.000000 0.000000
vn 1.000000 0.000000 0.000000
vn 1.000000 0.000000 0.000000
vn -1.000000 0.000000 0.000000
vn -1.000000 0.000000 0.000000
vn -1.000000 0.000000 0.000000
vn -1.000000 0.000000 0.000000
vn -1.000000 0.000000 0.000000
vn -1.000000 0.000000 0.000000
s 1
g pCube4
usemtl lambert9SG
f 97/166/297 98/185/298 101/184/299 100/180/300
f 98/185/298 99/163/301 102/178/302 101/184/299
s 2
f 100/147/303 101/148/304 104/151/305 103/177/306
f 101/148/304 102/179/307 105/176/308 104/151/305
f 103/177/306 104/151/305 107/183/309 106/174/310
f 104/151/305 105/176/308 108/172/311 107/183/309
s 3
f 106/153/312 107/154/313 110/182/314 109/170/315
f 107/154/313 108/173/316 111/168/317 110/182/314
s 4
f 109/156/318 110/157/319 113/160/320 112/165/321
f 110/157/319 111/169/322 114/162/323 113/160/320
f 112/165/321 113/160/320 98/145/324 97/167/325
f 113/160/320 114/162/323 99/146/326 98/145/324
s 5
f 114/161/327 111/158/328 108/155/329 105/152/330
f 99/164/331 114/161/327 105/152/330 102/149/332
s 6
f 109/171/333 112/159/334 103/150/335 106/175/336
f 112/159/334 97/144/337 100/181/338 103/150/335
